<svg viewBox="0 0 64 64" xmlns="http://www.w3.org/2000/svg">
<path d="M45.9266 15.3291C45.9175 15.464 46.1223 15.4809 46.1317 15.343C46.1449 15.1306 46.1132 14.9178 46.0387 14.7185C45.9642 14.5192 45.8486 14.3378 45.6993 14.1861C45.6033 14.0901 45.4581 14.2353 45.5541 14.3309C45.8121 14.5894 45.9512 14.9623 45.9266 15.3291ZM35.0051 17.1149C34.5822 17.0563 34.2687 17.1006 33.8942 16.9406C33.4359 16.7465 33.4289 16.4003 33.4195 15.9215C33.4183 15.8444 33.2722 12.0216 33.2546 11.6589C33.248 11.5244 33.0429 11.533 33.0494 11.6696C33.0671 12.024 33.2136 15.8608 33.2144 15.9256C33.2238 16.3966 33.2332 16.8831 33.8138 17.1293C34.2302 17.3069 34.56 17.2597 34.9768 17.3188C35.1196 17.3307 35.1327 17.1334 35.0051 17.1149ZM31.2045 12.9701C30.7779 13.0493 30.5391 13.6934 30.6712 14.4093C30.8029 15.1252 31.2562 15.6421 31.6829 15.5633C32.1087 15.4846 32.3475 14.8405 32.2158 14.1246C32.0837 13.4087 31.6304 12.8913 31.2045 12.9701ZM31.7042 11.9149C31.6886 11.8124 31.5963 11.7352 31.4979 11.7016C31.193 11.599 30.9428 11.8558 30.7102 12.0343C29.8187 12.7182 30.2991 13.0981 31.1175 12.5906C31.3309 12.4581 31.7411 12.1598 31.7042 11.9149ZM35.5315 14.5648C35.9582 14.486 36.1969 13.8419 36.0648 13.126C35.9327 12.4101 35.4798 11.8936 35.0531 11.9719C34.6273 12.0507 34.3885 12.6952 34.5202 13.4107C34.6519 14.1262 35.1057 14.6435 35.5315 14.5648ZM36.7299 11.7758C36.9863 11.7328 37.1286 11.5133 36.8677 11.3303C36.7057 11.2167 36.5178 11.1424 36.3303 11.0866C36.0456 11.0021 35.7255 10.8511 35.4765 11.0571C34.9596 11.4846 36.1321 11.8764 36.7299 11.7758Z"/>
<path d="M6.32418 45.0716C7.08132 44.2275 7.91876 43.459 8.82469 42.7771C9.077 42.8177 9.061 42.7906 10.5231 42.7992C11.1681 43.0593 10.9613 42.8464 21.9923 42.9223C21.8749 43.0187 21.9152 43.2895 22.3016 43.3494C22.5108 43.3822 22.7213 43.3974 22.9326 43.4043C23.0475 43.6718 23.0762 43.911 22.9342 44.2491C22.7053 44.2819 22.4374 44.4214 22.3078 44.4887C22.1535 44.5686 21.8401 44.8636 21.7949 45.095C21.2362 45.5102 21.2965 46.3245 22.5088 46.2852L26.2495 46.1477C26.2626 46.302 26.3627 46.3824 26.5072 46.4427C26.9297 46.6191 27.575 46.6363 27.8655 46.4152C27.8749 46.4275 27.8901 46.4382 27.8951 46.4513C27.9303 46.5498 27.8081 46.7147 27.5603 46.9026C27.3018 47.0991 26.9355 47.1488 26.5933 47.2103C25.6772 47.384 24.807 47.7458 24.0378 48.2729C22.8706 49.0745 22.8153 50.0431 23.4327 50.9137C23.7962 51.4269 24.3394 51.7629 24.7714 51.9992C25.9825 52.6573 27.3179 53.0546 28.6918 53.1656C30.5945 53.3194 31.0577 52.51 31.6153 50.782C31.8651 50.887 32.1835 50.8394 32.4173 50.686C32.7205 50.4862 32.9076 50.1543 33.0598 49.8244C33.3026 49.2973 33.429 48.6556 32.9375 48.3422C33.5295 47.6558 34.5949 46.7323 35.5053 46.7668C36.4485 46.7906 37.1636 47.648 38.0612 48.064C38.8218 48.4169 39.7711 48.4489 40.6992 48.1686C41.8975 49.2431 42.7906 49.376 43.9574 49.0733C45.7125 48.6158 47.2464 47.3748 48.0604 45.7543C48.8669 44.1481 48.844 42.4464 48.8194 40.6864C52.3833 42.2199 55.4327 44.2753 58.1326 46.9715C58.1421 46.9811 58.1534 46.9887 58.1659 46.9938C58.1784 46.999 58.1917 47.0017 58.2052 47.0017C58.2187 47.0017 58.2321 46.999 58.2445 46.9938C58.257 46.9887 58.2683 46.9811 58.2778 46.9715C58.2874 46.962 58.2949 46.9507 58.3001 46.9382C58.3053 46.9258 58.3079 46.9124 58.3079 46.8989C58.3079 46.8854 58.3053 46.8721 58.3001 46.8596C58.2949 46.8471 58.2874 46.8358 58.2778 46.8263C55.5377 44.0907 52.4423 42.0082 48.8181 40.4603C48.7935 38.3524 48.7389 36.0862 48.3365 34.2757C49.5734 34.1239 50.0021 33.6316 50.7242 32.4608C50.9556 32.0833 51.1951 31.6936 51.276 31.255C51.3572 30.8164 51.2518 30.3135 50.9026 30.0415C50.4263 29.6714 49.4963 29.6706 49.6727 28.8928C49.7822 28.4177 50.1601 28.0644 50.4686 27.6907C50.773 27.3133 51.0286 26.8021 50.8419 26.3557C50.501 25.5315 49.0233 25.6493 48.7796 24.7927C48.7065 24.5289 48.7796 24.2528 48.8165 23.9849C48.9908 22.7348 48.3414 21.5131 48.0534 20.3356C47.7843 19.2374 47.2362 18.1916 46.7619 17.1553C47.6079 14.7914 46.6421 11.7514 44.3328 11.0802C44.2171 10.5457 43.9012 9.72106 43.4015 8.92639C42.6462 6.95552 42.0013 6.09439 40.3451 4.59162C38.2893 2.72045 35.1024 2.6827 32.7636 3.53603C29.3925 4.77337 28.8735 8.08824 28.8493 8.13378C28.8477 8.1387 28.7049 8.63429 28.759 8.76229C28.7619 8.7705 28.7677 8.77665 28.773 8.78363C27.6501 9.56311 27.0901 10.853 26.8358 12.1847C26.2532 15.2936 26.9342 16.4755 27.3309 18.103C27.6799 19.5339 28.1234 20.9401 28.6585 22.3122C28.8834 22.8907 29.1275 23.4298 29.669 23.7252C30.1359 24.0054 30.7123 24.1678 30.9236 24.6589C31.0815 25.024 30.9679 25.4425 30.9277 25.84C30.8866 26.238 30.9761 26.725 31.3416 26.8792C31.7227 27.0433 32.1679 26.7582 32.4128 27.6361C31.804 27.7223 31.1554 27.8482 30.572 28.0443C30.3648 27.2772 30.1629 26.6331 29.9755 26.1518C29.685 25.4056 29.1533 24.8365 28.3558 24.8365C21.9131 24.4763 15.1701 24.5412 8.99782 25.1693C8.76069 25.1734 8.53012 25.2292 8.32089 25.3284C7.70141 25.4786 7.13115 25.7321 6.66961 26.1691C4.97689 27.7641 5.93525 30.3701 6.22735 32.3672C6.66961 35.4072 7.10818 38.448 7.55043 41.488C7.59167 41.767 7.7092 42.0292 7.89005 42.2456C8.0709 42.462 8.30802 42.6242 8.57525 42.7143C7.69197 43.3953 6.88335 44.1362 6.17115 44.9354C6.07966 45.0372 6.23556 45.1713 6.32418 45.0716ZM35.5106 46.5621C34.5014 46.5305 33.3863 47.4967 32.743 48.2569C32.5575 48.1986 32.3579 48.2038 32.1757 48.2716C31.4507 48.5555 30.8062 50.0829 31.4372 50.6675C30.8924 52.352 30.5318 53.1044 28.7082 52.9609C27.3629 52.8523 26.0552 52.4632 24.8694 51.8187C23.1865 50.901 22.5925 49.5155 24.1543 48.4423C25.9746 47.1902 27.0335 47.5598 27.6842 47.0663C27.9902 46.8337 28.2729 46.5137 27.9943 46.2482C28.1346 45.8482 27.3252 45.5278 26.9277 45.5762C26.7459 45.5988 26.4386 45.7469 26.3057 45.9401L22.5014 46.08C21.6034 46.1182 21.4852 45.6386 21.8671 45.3022C21.9812 45.39 22.119 45.3834 22.2598 45.3539C22.6184 45.2775 22.9419 45.0851 23.1804 44.8066C23.2633 44.709 23.3383 44.5855 23.3121 44.4603C23.2887 44.3483 23.2292 44.2868 23.1504 44.2581C23.2583 43.9537 23.2665 43.7071 23.1545 43.4048C23.4179 43.4027 23.7605 43.415 23.9582 43.2017C24.0674 43.0839 24.0046 42.9789 23.8573 42.9223H31.0491C32.0661 42.9223 32.6963 42.0222 32.6577 41.0138C32.6262 40.2689 32.5708 39.5253 32.4916 38.784C32.7562 38.8251 33.0274 38.83 33.2989 38.7881C34.3467 38.6117 34.6499 38.837 35.3162 39.584C35.6325 39.9381 35.9709 40.3254 36.3726 40.7939C35.6235 41.7088 35.2842 42.1264 36.2758 43.3674C37.9636 45.479 40.2278 47.7272 40.5252 48.0086C37.7789 48.7582 37.1997 46.6031 35.5106 46.5621ZM31.7794 37.4843C31.9414 37.4265 32.7074 36.9736 33.8881 37.0216C34.0329 37.0076 34.023 36.8218 33.8963 36.8164C33.1511 36.7875 32.4106 36.9464 31.7428 37.2784C31.669 37.2669 31.1336 37.3383 30.8329 37.0474C30.5613 36.7795 30.5949 36.3196 30.7652 36.0218C31.0397 35.5291 31.6805 35.2431 31.7486 35.1849C32.4794 34.9183 33.2756 34.8886 34.0243 35.0999C34.1535 35.1377 34.2118 34.9403 34.0805 34.903C33.266 34.6717 32.3985 34.7115 31.6087 35.0166C31.4462 35.04 31.2866 35.0589 31.1246 35.07C30.332 35.1172 30.188 34.8575 30.1457 34.8423C29.8782 34.5863 29.9008 34.1124 30.0706 33.822C30.1404 33.7001 30.238 33.5816 30.3656 33.4601C30.3779 33.456 30.3902 33.456 30.4009 33.4474C31.2169 32.7524 32.3783 32.4476 33.431 32.6511C33.5599 32.6798 33.6062 32.4763 33.47 32.4501C32.913 32.3446 32.3396 32.3634 31.7908 32.5053C31.2419 32.6471 30.7312 32.9084 30.295 33.2706C30.0321 33.2616 29.7712 33.2255 29.5898 33.0359C29.3174 32.7746 29.3478 32.3151 29.5139 32.0177C29.7219 31.6661 30.0325 31.4487 30.3902 31.2423C32.0198 30.3028 33.3966 30.1851 34.5982 30.8813C35.2661 31.2698 35.7355 31.8052 36.2319 32.3721C37.0955 33.3576 36.7332 32.9055 39.7108 35.8692C38.8083 37.1565 39.0766 37.4528 36.5043 40.6322C34.8419 38.6958 34.6384 38.3512 33.2661 38.5859C32.67 38.6761 31.8754 38.5034 31.6505 38.2199C31.5406 38.0739 31.5209 37.815 31.7794 37.4843ZM29.9225 33.6792C29.9082 33.5931 29.8938 33.5069 29.8782 33.4208C29.9422 33.4372 30.0066 33.4519 30.0793 33.4605C30.0208 33.5288 29.9684 33.602 29.9225 33.6792ZM47.877 45.662C47.0893 47.2312 45.6046 48.4316 43.9057 48.8743C42.8374 49.1533 42.0259 49.0482 40.9273 48.0973C41.1746 47.9758 41.8823 47.8035 43.1484 46.7188C43.1968 46.7537 43.2247 46.7795 43.3744 46.8103C43.9123 46.9211 44.1937 46.7488 44.5149 46.3003C44.6134 46.1629 44.7061 46.016 44.7455 45.8511C44.7947 45.6427 44.7492 45.4105 44.5498 45.2895C45.3539 44.2864 45.9951 43.0376 45.916 41.6476C45.8512 40.5047 45.3076 39.4765 44.7414 38.485C45.3568 38.5001 45.223 38.0099 44.9597 37.4716C44.7262 36.9945 44.327 36.6823 43.8589 36.8636C43.5689 36.2532 43.3457 35.6222 43.2932 34.9576C43.2313 34.1678 43.5164 33.1787 44.2897 32.8727C44.7348 32.6962 45.2764 32.7746 45.7675 32.6404C46.327 32.4886 46.8173 32.0476 47.1283 31.4495C48.4719 34.1067 48.5359 36.798 48.5913 39.7067C48.6319 41.8249 48.7853 43.8536 47.877 45.662ZM34.716 27.4121C34.2905 27.0995 34.4345 26.4956 34.7787 26.389C34.862 26.3631 34.9281 26.3426 35.0282 26.2117C35.4048 26.2404 35.3342 26.1736 38.5071 25.7067C38.6417 25.6854 38.6085 25.4823 38.4751 25.504C35.317 25.9955 35.287 26.0283 35.0405 26.0086C34.9773 25.9508 34.9449 25.989 34.7693 25.9213C34.5096 25.7481 34.453 25.3522 34.439 25.0064C34.5531 24.6651 34.9773 24.5403 35.3096 24.3869C36.3329 23.9215 37.4624 23.7393 38.5802 23.8593C38.9273 23.8979 39.3609 23.9791 39.6378 24.2671C39.877 24.5174 39.9291 24.9949 39.6509 25.1972C39.6368 25.2076 39.6255 25.2214 39.6183 25.2374C39.611 25.2534 39.608 25.271 39.6095 25.2885C39.6109 25.306 39.6169 25.3228 39.6267 25.3373C39.6366 25.3519 39.65 25.3637 39.6657 25.3715C40.43 25.7531 40.695 26.869 39.9028 27.5311C38.1691 27.5258 36.2368 27.3252 34.716 27.4121ZM34.9022 24.3422C34.823 23.6242 34.7476 22.949 34.677 22.5272C34.7558 22.5309 34.8325 22.5383 34.9125 22.5383C35.0905 22.5375 35.077 22.3332 34.9433 22.3332C34.9342 22.3307 34.9322 22.3405 34.574 22.3172C34.5601 22.3143 34.5482 22.3061 34.533 22.3098C34.5293 22.3102 34.5281 22.3139 34.5248 22.3151C32.0575 22.1305 30.3094 20.2187 29.6485 18.3139C29.3301 17.3785 28.8255 14.7656 29.2834 13.2242C29.461 12.6231 29.7487 12.0601 30.1318 11.5639C30.3311 11.6425 30.5525 11.6439 30.7529 11.568C30.8747 11.5229 31.8122 11.1373 31.8327 11.0765C31.9623 10.695 32.1006 10.3176 32.2507 9.94014C32.3443 9.89542 32.4415 9.8548 32.5387 9.81829C32.6565 10.1026 32.7947 10.3787 32.9572 10.6384C35.1586 10.243 37.4036 10.1487 39.6304 10.3582C39.9041 10.3857 39.8643 10.3356 40.142 9.66814C40.9174 9.98732 41.5287 10.5243 42.0189 11.216C40.2405 11.5639 39.2407 13.5282 39.2567 15.3998C39.2719 17.5332 40.5182 19.2973 42.1178 19.5902C41.1303 20.8431 39.7067 21.5828 38.2893 21.7042C38.2064 21.655 38.1375 21.7206 38.1396 21.7937C38.1277 21.7961 38.1162 21.799 38.1043 21.8011C38.2548 22.3369 38.197 22.2634 38.4407 23.6456C37.0581 23.5254 35.9902 23.8486 34.9022 24.3422ZM33.8987 5.41009C32.1174 6.01932 31.5406 7.38014 31.934 8.37747C31.6948 8.26048 31.4387 8.18171 31.175 8.14404C31.463 7.93645 31.3342 7.43839 31.4253 7.20332C32.135 5.29809 34.5474 4.03409 37.7186 5.16147C36.4419 4.92845 35.1225 4.98916 33.8987 5.41009ZM46.6044 16.9912C45.9919 18.8226 44.5531 19.6279 43.335 19.4306C41.7223 19.1914 40.4911 17.4253 40.4715 15.3223C40.4542 12.3602 42.6434 10.7266 44.332 11.2936C46.2803 11.8392 47.4027 14.613 46.6044 16.9912ZM32.8333 3.72886C34.8399 2.99696 38.0899 2.81727 40.2064 4.74342C42.1966 6.54937 42.5941 7.35757 43.4548 9.63901C43.6202 10.0825 43.9545 10.5535 44.0571 11.0179C43.495 10.9235 42.8013 11.0322 42.2717 11.3473L42.2745 11.3527L42.2622 11.3596C42.0267 9.40886 40.8633 7.43142 40.4165 6.80496C39.1152 4.93337 35.799 4.02506 33.6148 4.83491C32.5474 5.23286 31.6185 6.09562 31.2333 7.13111C31.1307 7.39614 31.2345 7.82198 31.0651 7.97337C30.983 8.04024 30.8354 8.03327 30.725 8.02711C29.751 7.98568 29.143 8.47716 28.9593 8.57809C29.2875 6.50916 30.6306 4.53706 32.8333 3.72886ZM32.4559 27.8372C35.8782 27.3457 37.6185 27.7527 39.9828 27.7367C44.0382 27.7367 45.8565 29.1028 47.0073 31.2267C46.7685 31.7494 46.3402 32.2716 45.7133 32.4427C45.221 32.5773 44.7123 32.4841 44.2138 32.6819C43.3387 33.0281 43.0183 34.0825 43.0885 34.9736C43.1439 35.6751 43.3777 36.3328 43.6797 36.9658C43.0799 37.4417 43.6218 38.2782 44.4875 38.455C45.068 39.4663 45.6456 40.5133 45.7108 41.6599C45.788 43.0142 45.1439 44.238 44.3447 45.2177C43.8635 45.152 42.7184 46.0583 43.0081 46.5686C42.3238 47.1545 41.5951 47.6575 40.7504 47.9377C40.2844 47.5081 39.9102 47.0848 39.5484 46.7225C38.4479 45.6193 37.4088 44.4565 36.4358 43.2394C35.607 42.2031 35.7966 41.8101 36.3078 41.1984C39.4717 37.4117 39.4052 36.1769 40.5117 35.2731C40.5937 35.2066 40.6827 35.1418 40.782 35.118C41.0146 35.0597 41.5041 35.2493 41.7474 35.6858C41.813 35.8039 41.9927 35.7047 41.9266 35.5857C41.637 35.0671 41.0561 34.8398 40.734 34.9186C40.4079 34.9974 40.0304 35.4478 39.8343 35.7038C36.9203 32.8029 37.2509 33.2238 36.3857 32.2372C35.9 31.6825 35.3978 31.1098 34.7008 30.7036C33.6604 30.101 32.5018 30.0813 31.1849 30.6265C31.0169 29.8276 30.8298 29.0328 30.6237 28.2429C31.205 28.0472 31.8532 27.9221 32.4559 27.8372ZM28.3517 25.0417C29.2284 25.0154 29.6432 25.8638 29.7843 26.2261C30.1535 27.1758 30.5814 28.7656 30.9921 30.7053C30.5149 30.9207 29.8815 31.248 29.5373 31.6435C29.1738 29.8819 28.7586 28.2864 28.382 27.3703C28.1666 26.8427 27.7568 26.4164 27.1603 26.4246C21.9074 26.1444 16.7521 26.2052 11.719 26.6761C10.9843 26.6884 10.4239 27.3137 10.5293 28.0037L12.2101 38.9592C12.2996 39.5274 12.8148 39.9496 13.4196 39.9496H29.3154C30.0743 39.9496 30.5453 39.3083 30.5174 38.59C30.4854 37.6735 30.3504 36.4316 30.1502 35.0921C30.4575 35.2858 30.8587 35.2993 31.221 35.2685C30.9802 35.4335 30.7402 35.6439 30.5863 35.9209C30.373 36.2934 30.3402 36.8497 30.6893 37.1943C30.8788 37.3773 31.1603 37.4741 31.5283 37.4827C31.526 37.4862 31.5238 37.4898 31.5217 37.4934C31.3371 37.6964 31.3178 38.1202 31.4881 38.3451C31.6604 38.5629 32.0103 38.6798 32.2811 38.7447C32.3693 39.589 32.4288 40.3754 32.4522 41.0216C32.4866 41.9192 31.941 42.7172 31.0491 42.7172C9.82161 42.7102 11.1443 42.7344 10.9026 42.6979C10.135 42.5789 9.8171 41.8856 9.85238 41.9266C9.60048 41.3198 9.98243 42.917 7.61115 27.0064C7.58167 26.8049 7.59569 26.5994 7.65226 26.4038C7.70883 26.2082 7.80663 26.027 7.9391 25.8723C8.07156 25.7177 8.23561 25.5932 8.42021 25.5072C8.60481 25.4212 8.80568 25.3758 9.0093 25.374C15.2948 24.7389 21.9939 24.6864 28.3517 25.0417ZM24.8185 32.7319C24.6602 33.0569 24.3394 33.3777 24.0797 33.6169C23.4003 34.2445 22.8218 34.5252 19.6674 36.3652C18.965 36.7754 18.4858 36.6007 18.2384 36.0324C17.991 35.4548 17.7174 32.862 17.662 32.2331C17.6013 31.5508 17.2887 30.1625 17.7958 29.5742C18.5145 28.7258 20.6819 29.854 21.4167 30.1789C22.1273 30.4915 25.342 31.6644 24.8185 32.7319Z"/>
<path d="M9.59228 23.9812C10.4571 24.2285 11.3744 24.0013 12.2388 23.7576C13.0429 23.5303 12.718 22.6294 12.5391 22.0242C12.4702 21.7851 12.373 21.5332 12.1658 21.3912C11.9291 21.23 11.0282 21.0294 10.1605 21.1922C9.79946 21.2612 8.99125 21.3018 8.91864 21.7687C8.89812 21.8741 8.93094 21.9799 8.95925 22.0813C9.29812 23.4232 8.9252 23.776 9.59228 23.9812ZM9.84418 23.36L10.6479 22.6212C10.4243 22.4222 10.2011 22.2273 9.97792 22.0283C9.87782 21.9377 10.0128 21.7851 10.1121 21.8741C10.3394 22.0772 10.5666 22.2802 10.798 22.4792L11.6829 21.6628C11.7773 21.5693 11.9168 21.717 11.8208 21.8134L10.9523 22.6175L11.8007 23.3436C11.9057 23.4298 11.7728 23.5836 11.6706 23.502C11.3826 23.2542 11.0901 23.0068 10.8021 22.7553L9.98202 23.5102C9.87289 23.5976 9.74694 23.4474 9.84418 23.36ZM16.0587 21.7645L14.7923 21.7933C14.4001 21.8035 14.3213 21.8921 14.3213 22.2072V22.2921C14.3172 22.5723 14.3172 23.0392 14.5728 23.1405C14.6499 23.1693 14.7435 23.1775 14.8329 23.1816C15.2957 23.2058 15.8721 23.2341 16.3221 22.9945C16.3833 22.9641 16.3997 22.9473 16.3997 22.8649C16.4137 22.594 16.3932 22.3224 16.3385 22.0567C16.279 21.7744 16.1876 21.7645 16.0587 21.7645Z"/>
<path d="M16.3303 20.993C15.7982 20.8593 15.214 20.831 14.67 20.9323C14.3131 21.0012 13.5008 21.0419 13.4277 21.5087C13.4113 21.6142 13.44 21.7196 13.4688 21.8214C13.8183 23.1506 13.4257 23.5112 14.1059 23.7208C14.9662 23.9686 15.8876 23.7414 16.7479 23.4977C17.552 23.2704 17.2312 22.3695 17.0528 21.7643C16.8796 21.1978 16.6917 21.0895 16.3303 20.993ZM16.4193 23.1731C16.0747 23.3557 15.6809 23.4 15.3116 23.4C14.4066 23.4 14.1046 23.3783 14.1178 22.2882C14.1219 22.1668 14.0973 21.9469 14.2273 21.7848C14.4091 21.553 14.6437 21.592 16.0095 21.5612C16.2893 21.5469 16.4513 21.6392 16.5371 22.0162C16.5941 22.3001 16.6183 22.5885 16.6023 22.8765C16.592 23.0152 16.5654 23.1001 16.4193 23.1731ZM21.3797 20.993C20.8439 20.8593 20.2638 20.831 19.7194 20.9323C19.3625 21.0012 18.5502 21.0419 18.4776 21.5087C18.4612 21.6142 18.4899 21.7196 18.5182 21.8214C18.8649 23.1399 18.4739 23.5186 19.1553 23.7208C20.016 23.9686 20.9334 23.7414 21.7978 23.4977C22.6019 23.2704 22.277 22.3695 22.0981 21.7643C21.9352 21.1982 21.7366 21.0882 21.3797 20.993ZM21.4852 22.2554C20.8281 22.2451 20.1715 22.2981 19.5245 22.4138C19.424 22.4646 19.3338 22.248 19.488 22.2148C20.1483 22.0959 20.8185 22.0416 21.4893 22.0527C21.6078 22.0527 21.632 22.2464 21.4852 22.2554ZM23.3851 41.2339C23.3416 40.6923 22.8394 40.2271 22.2958 40.2259C21.6382 40.2242 20.8776 41.0382 21.3276 41.67C21.808 42.3452 23.463 42.2074 23.3851 41.2339ZM35.6673 18.943C36.1243 18.7083 36.1309 18.1635 36.0919 17.6827C36.0809 17.542 35.877 17.567 35.8876 17.6991C35.9188 18.0864 35.9389 18.5738 35.5734 18.7604C35.4142 18.8425 35.2111 18.8265 35.0314 18.8129C34.9063 18.7932 34.8722 19.0058 35.0158 19.0173C35.2365 19.0345 35.4647 19.0464 35.6673 18.943ZM52.9555 32.2296C52.8624 32.3301 53.015 32.4675 53.1053 32.3699C57.2739 27.9022 57.6513 21.0304 53.9668 16.1307C53.6969 15.7721 53.3703 15.3828 52.9535 15.1219C53.2825 13.2265 52.7073 11.19 51.4249 9.75407C50.0874 8.25869 48.0181 7.45458 46.021 7.65274C45.8864 7.66628 45.9061 7.87017 46.0415 7.85704C47.9721 7.66258 49.9775 8.4433 51.2718 9.8911C52.4977 11.263 53.0556 13.2006 52.7631 15.0152C51.7814 14.5245 50.5986 15.0587 50.7762 16.1106C50.8809 16.7297 51.4696 16.9836 51.9689 16.737C52.453 16.4975 52.8173 15.8406 52.9112 15.3393C53.2698 15.5822 53.5594 15.9313 53.8027 16.2542C57.4154 21.0583 57.0704 27.8201 52.9555 32.2296ZM51.8778 16.5528C51.4946 16.7448 51.0585 16.55 50.9785 16.0761C50.8329 15.2125 51.8228 14.7514 52.7254 15.2265C52.7192 15.2564 52.3204 16.3342 51.8778 16.5528ZM7.43265 17.8382L9.73911 19.4923C9.84906 19.5707 9.96885 19.4045 9.85809 19.3258L7.55203 17.6716C7.44127 17.592 7.32229 17.7598 7.43265 17.8382ZM10.7574 18.918C10.136 17.4917 9.63033 16.0179 9.24516 14.5106C9.21193 14.3801 9.01296 14.4289 9.0466 14.561C9.43437 16.0791 9.94364 17.5636 10.5695 19C10.6228 19.1239 10.8119 19.0431 10.7574 18.918ZM11.9635 18.7654C12.0895 17.7165 12.0812 16.656 11.9389 15.6092C11.9204 15.478 11.717 15.5001 11.7354 15.6371C11.8749 16.6652 11.8831 17.7098 11.76 18.7411C11.7436 18.8753 11.9475 18.9007 11.9635 18.7654Z"/>
</svg>
