<svg viewBox="0 0 64 64" xmlns="http://www.w3.org/2000/svg">
<path d="M10.9453 27.9762C11.675 28.0302 12.4082 28.011 13.1341 27.919C13.1825 27.9151 13.2312 27.9188 13.2785 27.9298C13.4302 27.3579 13.471 26.7622 13.3985 26.175C13.3552 25.9309 13.2601 25.6989 13.1194 25.4947C12.9788 25.2905 12.796 25.1189 12.5833 24.9914C12.4286 24.9046 12.2557 24.8551 12.0785 24.847H12.0333C12.0089 24.847 11.9849 24.851 11.9609 24.8526C11.9369 24.8542 11.9061 24.855 11.8809 24.859C11.8557 24.863 11.8181 24.8706 11.7873 24.8778C11.7565 24.885 11.7345 24.8882 11.7073 24.8958C11.6801 24.9034 11.6461 24.917 11.6157 24.9286C11.5853 24.9402 11.5657 24.9462 11.5417 24.9574C11.5113 24.971 11.4825 24.9874 11.4529 25.0034L11.4297 25.0162C11.4149 25.0246 11.3993 25.0318 11.3849 25.0406C11.3557 25.059 11.3281 25.0806 11.2997 25.1002C11.2797 25.1146 11.2597 25.1282 11.2389 25.1438C11.2109 25.1666 11.1845 25.1918 11.1589 25.2162C11.1417 25.2326 11.1229 25.2474 11.1065 25.2642C11.0785 25.293 11.0533 25.3238 11.0265 25.3542C11.0137 25.3698 10.9993 25.3838 10.9865 25.3998C10.9498 25.4471 10.916 25.4965 10.8853 25.5478C10.7639 25.7564 10.6825 25.9858 10.6453 26.2242C10.6069 26.4648 10.6004 26.7095 10.6261 26.9518C10.6734 27.3017 10.7394 27.6489 10.8237 27.9918C10.8634 27.9814 10.9042 27.9761 10.9453 27.9762ZM9.82047 39.423C9.99367 39.4838 10.1697 39.5362 10.3473 39.583C10.4061 39.5982 10.4673 39.6082 10.5253 39.623C10.6453 39.6502 10.7653 39.6774 10.8853 39.6978C10.9569 39.7098 11.0293 39.7162 11.1017 39.7258C11.2121 39.7402 11.3229 39.755 11.4345 39.7634C11.5121 39.7694 11.5901 39.7706 11.6681 39.7734C11.7725 39.7774 11.8769 39.781 11.9821 39.7798C12.0973 39.7798 12.2133 39.7702 12.3289 39.7622C12.4145 39.7562 12.5001 39.7526 12.5857 39.743C12.7057 39.7294 12.8281 39.7078 12.9493 39.687C13.0293 39.6734 13.1093 39.663 13.1917 39.647C13.3261 39.6186 13.4601 39.5802 13.5945 39.5422C13.6621 39.5234 13.7297 39.509 13.7973 39.4874C13.9973 39.423 14.1997 39.349 14.3973 39.263C14.0122 35.8126 13.6293 32.3636 13.2485 28.9158C12.7504 28.9783 12.2489 29.0097 11.7469 29.0098C11.4535 29.0098 11.1602 28.9991 10.8669 28.9778C10.8605 28.9778 10.8553 28.9734 10.8493 28.9726C10.6821 30.6162 10.5149 32.2606 10.3501 33.9154C10.1737 35.7318 9.99447 37.565 9.82047 39.423ZM45.8201 29.4562C45.3985 25.2962 44.9807 21.1388 44.5669 16.9838C39.9257 18.6922 35.8101 20.1578 32.0001 21.4586C31.7859 21.5318 31.5532 21.5301 31.3401 21.4538C29.2201 20.6957 27.1001 19.937 24.9801 19.1778L18.8201 16.9738C18.2549 21.1382 17.7801 25.3382 17.3273 29.7082C19.1161 32.5682 36.5601 38.9282 45.8201 29.4562Z"/>
<path d="M11.4429 17.3166C11.4305 19.2766 11.4181 21.8526 11.4085 23.9418C11.6116 23.8795 11.8228 23.8473 12.0353 23.8462H12.1153C12.2819 23.8525 12.4471 23.8784 12.6077 23.9234C12.6169 21.8382 12.6293 19.273 12.6417 17.3234L12.6637 13.7066L18.9561 15.9602C23.1961 17.4762 27.4361 18.9936 31.6761 20.5122C33.8382 19.7744 35.9835 19.0245 38.1121 18.2626C39.1771 17.8826 40.2387 17.5002 41.2969 17.1154C42.355 16.7306 43.4107 16.344 44.4641 15.9554C46.4182 15.2373 48.3662 14.5145 50.3081 13.787C52.2499 13.0596 54.1899 12.3317 56.1281 11.6034C55.1457 11.2093 54.1597 10.8196 53.1701 10.4342C51.1909 9.66355 49.1998 8.90809 47.1969 8.16782C45.1939 7.42755 43.1829 6.69969 41.1637 5.98422C40.1543 5.62582 39.1434 5.27009 38.1309 4.91702C36.1061 4.21089 34.0771 3.51329 32.0441 2.82422C23.8961 5.52822 15.8521 8.52422 7.87207 11.9922C9.07207 12.4222 10.2677 12.8486 11.4677 13.279L11.4429 17.3166ZM30.3881 60.9602C31.1841 60.4722 31.9801 59.9882 32.7641 59.4722C33.4561 59.9762 34.1081 60.5362 34.8641 61.1762C35.0417 59.1402 34.9877 57.4562 35.0037 55.4442H35.0093C40.0553 55.4362 44.8461 55.5906 49.2393 55.915C49.3205 55.9216 49.402 55.9079 49.4766 55.8753C49.5513 55.8426 49.6166 55.7919 49.6669 55.7278C50.7404 54.4641 51.3267 52.8583 51.3201 51.2002L53.3901 51.1718C53.5117 51.1701 53.6284 51.1241 53.7186 51.0426C53.8088 50.961 53.8662 50.8494 53.8801 50.7286C54.0524 49.1628 53.6677 47.5863 52.7937 46.2758C51.8586 44.9132 50.4419 43.9555 48.8289 43.5958C48.7844 43.5857 48.7389 43.5811 48.6933 43.5822C44.2789 43.7422 39.7733 43.8298 35.3049 43.8458C33.7305 43.8538 32.1381 43.8494 30.5717 43.8338C25.5073 43.7886 20.5601 43.6446 15.8685 43.4062C14.8051 43.3792 13.7544 43.6422 12.8292 44.167C11.9039 44.6917 11.139 45.4585 10.6165 46.385C9.53087 48.3258 9.50927 50.9266 10.5605 53.1746C11.0347 54.28 11.841 55.2104 12.8677 55.837C13.4398 56.1598 14.0852 56.3305 14.7421 56.3326C14.8581 56.3326 14.9733 56.3226 15.0885 56.3114C15.0997 56.3114 15.1093 56.3174 15.1201 56.3174H15.1625C20.1987 55.8955 25.2467 55.6267 30.2993 55.5114C30.2701 57.287 30.3369 58.9202 30.3881 60.9602ZM16.3813 50.9234C15.4381 50.9157 14.4942 50.9088 13.5497 50.9026C13.5014 50.3457 13.5571 49.7847 13.7141 49.2482C13.7977 48.9647 13.9441 48.7038 14.1426 48.4847C14.341 48.2657 14.5862 48.0942 14.8601 47.983C15.0699 47.9101 15.2929 47.8828 15.5141 47.903C15.9681 47.9492 16.3941 48.1443 16.7257 48.4578C17.2442 48.997 17.5487 49.7065 17.5821 50.4538C17.5943 50.6135 17.5974 50.7738 17.5913 50.9338L16.3813 50.9234ZM15.8117 44.4034C16.032 44.4169 16.2508 44.45 16.4653 44.5022C17.0914 44.6759 17.6759 44.9745 18.1835 45.3801C18.6911 45.7857 19.1113 46.2899 19.4189 46.8622C19.4409 46.8998 19.4589 46.9422 19.4809 46.9794C18.0369 46.9494 16.6237 46.921 15.5641 46.9042H15.5601C15.2096 46.8779 14.8575 46.924 14.5257 47.0398C14.109 47.2016 13.7342 47.4555 13.4295 47.7825C13.1247 48.1095 12.8978 48.5012 12.7657 48.9282C12.5395 49.7428 12.4752 50.5937 12.5765 51.433C12.5848 51.5592 12.6406 51.6775 12.7327 51.7642C12.8249 51.8508 12.9464 51.8993 13.0729 51.8998C14.1734 51.9049 15.2733 51.9125 16.3725 51.9226L17.4677 51.931C17.4149 52.201 17.3453 52.491 17.2517 52.815C17.0469 53.513 16.6881 54.4978 15.9429 54.991C15.6764 55.1645 15.3735 55.274 15.0577 55.311C14.4678 55.3764 13.8722 55.2546 13.3553 54.963C12.5154 54.4327 11.856 53.6602 11.4641 52.7474C10.5473 50.7874 10.5565 48.5358 11.4881 46.871C11.917 46.1061 12.546 45.4723 13.3077 45.0375C14.0693 44.6028 14.9349 44.3838 15.8117 44.4034ZM17.2185 55.1558C17.6805 54.54 18.0182 53.84 18.2125 53.095C18.3708 52.5711 18.4835 52.0344 18.5493 51.491C18.5963 51.1208 18.6062 50.7468 18.5789 50.3746C18.5263 49.4814 18.1871 48.629 17.6117 47.9438C18.3469 47.9582 19.1317 47.9742 19.9157 47.9906C20.2229 48.9391 20.3944 49.9262 20.4253 50.9226C20.4314 51.0505 20.4864 51.1712 20.579 51.2597C20.6715 51.3482 20.7944 51.3978 20.9225 51.3982C24.2653 51.411 27.7317 51.4086 31.4741 51.391C31.3889 51.2292 31.3155 51.0614 31.2545 50.889C31.1977 50.7267 31.1519 50.5607 31.1173 50.3922C27.6869 50.4078 24.4833 50.4106 21.3941 50.4002C21.3331 49.3449 21.1131 48.3047 20.7417 47.315C20.6137 46.989 20.4619 46.6728 20.2877 46.369C19.89 45.665 19.3603 45.0442 18.7277 44.5406C22.5529 44.7006 26.5193 44.8002 30.5625 44.8362C30.7789 44.8386 30.9985 44.8386 31.2157 44.8402C31.8044 45.3572 32.2919 45.9791 32.6533 46.6742C33.3334 46.2256 34.1453 46.0205 34.9569 46.0922C35.71 46.1701 36.4198 46.4821 36.9865 46.9842C36.6998 46.2063 36.2829 45.4828 35.7537 44.8446C40.0637 44.8246 44.4021 44.739 48.6581 44.5866C50.0026 44.8994 51.1818 45.7031 51.9645 46.8402C52.6225 47.8279 52.9558 48.9964 52.9177 50.1826L50.7641 50.2122C46.0885 50.2742 42.1085 50.3222 38.1509 50.353C38.1169 50.5225 38.0712 50.6895 38.0141 50.8526C37.9539 51.0253 37.8815 51.1935 37.7973 51.3558C41.7445 51.3262 45.6997 51.2794 50.3173 51.2182C50.3201 52.5549 49.8708 53.8532 49.0425 54.9022C44.8345 54.5986 40.2669 54.447 35.4709 54.449C35.9103 53.9228 36.2799 53.342 36.5705 52.721L36.5545 52.7322C35.9807 53.0872 35.3184 53.2732 34.6437 53.2686C33.8475 53.2729 33.0718 53.0167 32.4349 52.539C32.0381 53.2695 31.5264 53.9313 30.9193 54.499C30.7089 54.5034 30.5005 54.5082 30.2953 54.5138C25.9833 54.6046 21.5941 54.827 17.2185 55.1558Z"/>
<path d="M32.3469 50.8829C32.4353 51.0613 32.5439 51.2289 32.6705 51.3825C32.7331 51.4549 32.7999 51.5236 32.8705 51.5881C32.9105 51.6253 32.9457 51.6681 32.9881 51.7013C33.4154 52.0359 33.9345 52.2324 34.4762 52.2649C35.0179 52.2973 35.5567 52.1641 36.0209 51.8829C36.3307 51.682 36.5929 51.416 36.7893 51.1033C36.9337 50.878 37.0446 50.6329 37.1185 50.3757C37.2456 49.951 37.261 49.5006 37.1633 49.0681C37.0259 48.544 36.7329 48.0739 36.3228 47.7197C35.9128 47.3655 35.405 47.1439 34.8665 47.0841C34.7865 47.0769 34.7105 47.0737 34.6341 47.0737C34.0582 47.0759 33.4997 47.2712 33.0481 47.6285C32.6613 47.9246 32.3634 48.3213 32.1869 48.7753C32.0045 49.2944 31.9905 49.8578 32.1469 50.3853C32.1975 50.5572 32.2645 50.7238 32.3469 50.8829Z"/>
</svg>
