<svg viewBox="0 0 64 64" xmlns="http://www.w3.org/2000/svg">
<path fill-rule="evenodd" clip-rule="evenodd" d="M28.7289 52.6887H34.5647V50.5229H28.7289V52.6887ZM25.6975 49.4725H37.595C37.7242 49.4725 37.8292 49.3674 37.8292 49.2393V47.9137C37.8292 47.7856 37.7242 47.6806 37.595 47.6806H25.6975C25.5694 47.6806 25.4644 47.7856 25.4644 47.9137V49.2393C25.4644 49.3674 25.5694 49.4725 25.6975 49.4725ZM17.5099 11.8096C17.5099 12.2371 17.8576 12.5847 18.2851 12.5847H26.3687C26.7962 12.5847 27.1439 12.2371 27.1439 11.8096V10.3275C27.1439 9.9 26.7962 9.55233 26.3687 9.55233H24.8289C24.539 9.55233 24.3037 9.31705 24.3037 9.02715C24.3037 7.93687 23.4161 7.05036 22.3269 7.05036C21.2366 7.05036 20.3501 7.93687 20.3501 9.02715C20.3501 9.31705 20.1149 9.55233 19.825 9.55233H18.2851C17.8576 9.55233 17.5099 9.9 17.5099 10.3275V11.8096ZM33.4902 29.6395C33.4723 29.6721 33.4828 29.7141 33.5154 29.733L40.4079 33.7118C40.4394 33.7307 40.4825 33.7191 40.5003 33.6866L41.9624 31.1541C40.7009 30.2361 39.8785 28.7488 39.8785 27.0724C39.8785 24.2889 42.1431 22.0254 44.9255 22.0254C45.6576 22.0254 46.3519 22.183 46.98 22.4634L48.4421 19.932C48.4526 19.9121 48.4516 19.8932 48.4484 19.8806C48.4436 19.8634 48.4323 19.8487 48.4169 19.8396L41.5244 15.8598C41.5045 15.8482 41.4856 15.8503 41.473 15.8535C41.4604 15.8566 41.4436 15.865 41.432 15.885L33.4902 29.6395ZM11.4294 12.6341H16.6581C16.9606 13.2276 17.5751 13.6351 18.2851 13.6351H26.3687C27.0777 13.6351 27.6932 13.2276 27.9947 12.6341H33.2244C33.9397 12.6341 34.5217 13.216 34.5217 13.9324V25.7532L32.5806 29.1143C32.2728 29.649 32.4556 30.3338 32.9902 30.6426L33.6866 31.0449L31.2739 35.2243C30.9651 35.7589 31.1489 36.4438 31.6825 36.7526L34.5217 38.3911V43.6902C34.5217 44.4055 33.9397 44.9874 33.2244 44.9874H11.4294C10.7141 44.9874 10.1311 44.4055 10.1311 43.6902V13.9324C10.1311 13.216 10.7141 12.6341 11.4294 12.6341ZM35.6151 50.5229H37.595C38.303 50.5229 38.8796 49.9473 38.8796 49.2393V47.9137C38.8796 47.2058 38.303 46.6302 37.595 46.6302H36.5341C37.2556 45.8209 37.6538 44.7744 37.6528 43.6902V36.8744L39.1853 34.2191L39.8827 34.6214C40.0581 34.7233 40.2503 34.7716 40.4394 34.7716C40.8259 34.7716 41.203 34.571 41.4099 34.2128L42.872 31.6804C43.1966 31.8253 43.538 31.9388 43.8941 32.0133C45.8425 34.3798 46.9128 37.3628 46.9128 40.4351C46.9128 45.8267 43.705 50.6247 38.7326 52.6887H35.6151V50.5229ZM54.3672 40.4351C54.3672 44.8876 52.9797 49.1185 50.3548 52.6887H41.0518C42.7933 51.6362 44.2963 50.2224 45.4633 48.5198C47.0987 46.1344 47.9632 43.3394 47.9632 40.4351C47.9632 37.4406 47.0199 34.5237 45.2889 32.1047C47.7153 31.9314 49.6721 30.0355 49.941 27.6365C52.8053 31.276 54.3672 35.7663 54.3672 40.4351ZM56.9995 54.3514V55.8041C56.9995 56.7211 56.2537 57.4679 55.3367 57.4679H24.4949C23.5779 57.4679 22.8321 56.7211 22.8321 55.8041V54.3514C22.8321 53.4345 23.5779 52.6887 24.4949 52.6887H27.6785V50.5229H25.6975C24.9896 50.5229 24.414 49.9473 24.414 49.2393V48.1186H11.4294C8.98729 48.1186 7 46.1323 7 43.6902V13.9324C7 11.4892 8.98729 9.50297 11.4294 9.50297H16.6581C16.9606 8.90951 17.5751 8.50197 18.2851 8.50197H19.3449C19.5939 7.08188 20.8365 6 22.3269 6C23.8163 6 25.0589 7.08188 25.3079 8.50197H26.3687C27.0777 8.50197 27.6932 8.90951 27.9947 9.50297H33.2244C35.6665 9.50297 37.6528 11.4892 37.6528 13.9324V20.3291L40.5224 15.3598C40.6715 15.1014 40.9121 14.9165 41.2009 14.8388C41.4908 14.7611 41.7912 14.801 42.0496 14.9502L42.7471 15.3524L43.8877 13.3757C44.1966 12.841 44.8814 12.6583 45.416 12.966L48.9778 15.0226C49.2362 15.1718 49.4211 15.4123 49.4977 15.7012C49.5755 15.99 49.5366 16.2915 49.3875 16.5499L48.2457 18.5277L48.9421 18.93C49.2005 19.0791 49.3854 19.3197 49.4631 19.6085C49.5398 19.8974 49.5009 20.1988 49.3517 20.4572L47.8886 22.9907C48.8402 23.6818 49.5408 24.6975 49.8276 25.8739C53.4335 29.8758 55.4176 35.0415 55.4176 40.4351C55.4176 44.8572 54.1152 49.0712 51.6426 52.6887H55.3367C56.2537 52.6887 56.9995 53.4345 56.9995 54.3514ZM46.3162 27.0724C46.3162 27.8392 45.6923 28.462 44.9255 28.462C44.1598 28.462 43.5359 27.8392 43.5359 27.0724C43.5359 26.3056 44.1598 25.6817 44.9255 25.6817C45.6923 25.6817 46.3162 26.3056 46.3162 27.0724ZM14.7548 18.055C14.5899 17.8166 14.2633 17.7567 14.0248 17.9216C13.7864 18.0865 13.7265 18.4143 13.8914 18.6527L14.7958 19.9583C14.8358 20.0161 14.887 20.0652 14.9463 20.1027C15.0057 20.1403 15.0721 20.1654 15.1414 20.1768C15.1697 20.182 15.1981 20.1841 15.2275 20.1841C15.3388 20.1841 15.4481 20.1484 15.5395 20.0812L18.2252 18.0981C18.3343 18.0143 18.4062 17.891 18.4254 17.7548C18.4445 17.6186 18.4095 17.4803 18.3277 17.3697C18.246 17.259 18.1241 17.1849 17.9882 17.1632C17.8524 17.1415 17.7135 17.1739 17.6013 17.2536L15.3504 18.9153L14.7548 18.055ZM13.7192 21.7481H16.3209C17.1108 21.7481 17.7683 21.1063 17.7872 20.3175C17.7903 20.1783 17.7381 20.0435 17.6421 19.9427C17.546 19.8419 17.4139 19.7833 17.2747 19.7797C16.9879 19.7734 16.7432 20.0024 16.7369 20.2923C16.7316 20.516 16.5447 20.6977 16.3209 20.6977H13.7192C13.4902 20.6977 13.3032 20.5118 13.3032 20.2818V17.6801C13.3035 17.5699 13.3475 17.4644 13.4254 17.3866C13.5034 17.3088 13.609 17.2652 13.7192 17.2652H16.3209C16.3409 17.2652 16.3598 17.2662 16.3787 17.2683C16.5167 17.2875 16.6567 17.2511 16.7679 17.1673C16.8792 17.0834 16.9526 16.9588 16.9722 16.8209C16.9912 16.6828 16.9547 16.5429 16.8706 16.4318C16.7865 16.3207 16.6617 16.2476 16.5237 16.2284C16.4575 16.219 16.3892 16.2148 16.3209 16.2148H13.7192C12.9115 16.2148 12.2529 16.8723 12.2529 17.6801V20.2818C12.2529 21.0906 12.9115 21.7481 13.7192 21.7481ZM17.6013 27.0829L15.3504 28.7446L14.7548 27.8843C14.7157 27.8276 14.6657 27.7792 14.6078 27.7418C14.5499 27.7044 14.4853 27.6788 14.4175 27.6664C14.3497 27.654 14.2801 27.6551 14.2127 27.6696C14.1454 27.6841 14.0815 27.7118 14.0248 27.7509C13.7864 27.9169 13.7265 28.2436 13.8914 28.482L14.7958 29.7876C14.8359 29.8454 14.8871 29.8945 14.9464 29.9322C15.0058 29.9699 15.0721 29.9954 15.1414 30.0071C15.1697 30.0113 15.1981 30.0134 15.2275 30.0134C15.3388 30.0134 15.4481 29.9788 15.5395 29.9105L18.2252 27.9274C18.3343 27.8436 18.4062 27.7204 18.4254 27.5841C18.4445 27.4479 18.4095 27.3096 18.3277 27.199C18.246 27.0883 18.1241 27.0142 17.9882 26.9925C17.8524 26.9708 17.7135 27.0033 17.6013 27.0829ZM13.7192 31.5774H16.3209C17.1108 31.5774 17.7683 30.9357 17.7872 30.1468C17.7903 30.0076 17.7381 29.8728 17.6421 29.772C17.546 29.6712 17.4139 29.6126 17.2747 29.609C16.9879 29.6027 16.7432 29.8317 16.7369 30.1216C16.7316 30.3453 16.5447 30.5271 16.3209 30.5271H13.7192C13.609 30.5271 13.5034 30.4834 13.4254 30.4056C13.3475 30.3278 13.3035 30.2223 13.3032 30.1122V27.5094C13.3035 27.3992 13.3475 27.2937 13.4254 27.2159C13.5034 27.1381 13.609 27.0945 13.7192 27.0945H16.3209C16.3409 27.0945 16.3598 27.0955 16.3798 27.0987C16.6676 27.1375 16.9322 26.9369 16.9722 26.6491C17.011 26.3624 16.8104 26.0966 16.5226 26.0578C16.4564 26.0483 16.3882 26.0441 16.3209 26.0441H13.7192C12.9115 26.0441 12.2529 26.7016 12.2529 27.5094V30.1122C12.2529 30.9199 12.9115 31.5774 13.7192 31.5774ZM21.2251 18.2966H31.8747C32.1646 18.2966 32.3999 18.0613 32.3999 17.7714C32.3999 17.4815 32.1646 17.2463 31.8747 17.2463H21.2251C20.9352 17.2463 20.6999 17.4815 20.6999 17.7714C20.6999 18.0613 20.9352 18.2966 21.2251 18.2966ZM21.2251 37.9552H28.8812C29.1711 37.9552 29.4064 37.72 29.4064 37.4301C29.4064 37.1402 29.1711 36.9049 28.8812 36.9049H21.2251C20.9352 36.9049 20.6999 37.1402 20.6999 37.4301C20.6999 37.72 20.9352 37.9552 21.2251 37.9552ZM21.2251 40.3753H28.7688C29.0587 40.3753 29.294 40.141 29.294 39.8501C29.294 39.5602 29.0587 39.3249 28.7688 39.3249H21.2251C20.9352 39.3249 20.6999 39.5602 20.6999 39.8501C20.6999 40.141 20.9352 40.3753 21.2251 40.3753ZM21.2251 20.7167H28.7688C29.0587 20.7167 29.294 20.4814 29.294 20.1915C29.294 19.9016 29.0587 19.6663 28.7688 19.6663H21.2251C20.9352 19.6663 20.6999 19.9016 20.6999 20.1915C20.6999 20.4814 20.9352 20.7167 21.2251 20.7167ZM21.2251 30.546H28.7688C29.0587 30.546 29.294 30.3107 29.294 30.0208C29.294 29.7309 29.0587 29.4956 28.7688 29.4956H21.2251C20.9352 29.4956 20.6999 29.7309 20.6999 30.0208C20.6999 30.3107 20.9352 30.546 21.2251 30.546ZM21.2251 28.1259H30.4231C30.713 28.1259 30.9483 27.8906 30.9483 27.6007C30.9483 27.3108 30.713 27.0756 30.4231 27.0756H21.2251C20.9352 27.0756 20.6999 27.3108 20.6999 27.6007C20.6999 27.8906 20.9352 28.1259 21.2251 28.1259ZM17.6013 36.9122L15.3504 38.5739L14.7548 37.7137C14.7157 37.657 14.6657 37.6085 14.6078 37.5711C14.5499 37.5337 14.4853 37.5081 14.4175 37.4957C14.3497 37.4833 14.2801 37.4844 14.2127 37.4989C14.1454 37.5134 14.0815 37.5411 14.0248 37.5803C13.7864 37.7462 13.7265 38.0729 13.8914 38.3113L14.7958 39.6169C14.8359 39.6747 14.8871 39.7238 14.9464 39.7615C15.0058 39.7992 15.0721 39.8247 15.1414 39.8364C15.1697 39.8406 15.1981 39.8427 15.2275 39.8427C15.3397 39.843 15.449 39.8073 15.5395 39.7409L18.2252 37.7567C18.4584 37.5855 18.5078 37.2557 18.3355 37.0225C18.1633 36.7893 17.8345 36.74 17.6013 36.9122ZM13.7192 41.4067H16.3209C17.1108 41.4067 17.7683 40.765 17.7872 39.9761C17.7903 39.8369 17.7381 39.7021 17.6421 39.6013C17.546 39.5005 17.4139 39.4419 17.2747 39.4384C16.9879 39.4321 16.7432 39.661 16.7369 39.9509C16.7316 40.1747 16.5447 40.3564 16.3209 40.3564H13.7192C13.609 40.3564 13.5034 40.3127 13.4254 40.2349C13.3475 40.1571 13.3035 40.0516 13.3032 39.9415V37.3397C13.3032 37.1097 13.4902 36.9238 13.7192 36.9238H16.3209C16.3409 36.9238 16.3598 36.9248 16.3787 36.928C16.6655 36.9679 16.9312 36.7673 16.9722 36.4805C16.9817 36.4121 16.9776 36.3425 16.9603 36.2756C16.9429 36.2088 16.9125 36.146 16.8708 36.0909C16.8292 36.0358 16.7771 35.9894 16.7175 35.9544C16.658 35.9195 16.5921 35.8966 16.5237 35.8871C16.4575 35.8776 16.3892 35.8734 16.3209 35.8734H13.7192C12.9115 35.8734 12.2529 36.5309 12.2529 37.3397V39.9415C12.2529 40.7492 12.9115 41.4067 13.7192 41.4067ZM21.6326 8.82338C21.6326 8.44105 21.9446 8.13014 22.3269 8.13014C22.7082 8.13014 23.0202 8.44105 23.0202 8.82338C23.0202 9.20571 22.7082 9.51767 22.3269 9.51767C21.9446 9.51767 21.6326 9.20571 21.6326 8.82338Z"/>
</svg>
